<mxfile host="app.diagrams.net" modified="2024-04-27T05:06:30.086Z" agent="Mozilla/5.0 (Windows NT 10.0; Win64; x64) AppleWebKit/537.36 (KHTML, like Gecko) Chrome/123.0.0.0 Safari/537.36" etag="o2aBSSfahZV8SdFwjsMR" version="21.3.2" type="device">
  <diagram name="Страница 1" id="fjtKkkvBbFLq72lz-mwp">
    <mxGraphModel dx="1695" dy="1008" grid="1" gridSize="10" guides="1" tooltips="1" connect="1" arrows="1" fold="1" page="1" pageScale="1" pageWidth="827" pageHeight="1169" math="0" shadow="0">
      <root>
        <mxCell id="0" />
        <mxCell id="1" parent="0" />
        <mxCell id="Jrstl3ndmxF7WaJTI_ze-1" value="АРМ &quot;Администратор ресторана&quot;" style="rounded=0;whiteSpace=wrap;html=1;fontSize=16;" vertex="1" parent="1">
          <mxGeometry x="234" y="90" width="180" height="60" as="geometry" />
        </mxCell>
        <mxCell id="Jrstl3ndmxF7WaJTI_ze-2" value="Подсистема добавления блюда" style="rounded=0;whiteSpace=wrap;html=1;fontSize=16;" vertex="1" parent="1">
          <mxGeometry y="210" width="120" height="90" as="geometry" />
        </mxCell>
        <mxCell id="Jrstl3ndmxF7WaJTI_ze-3" value="Подсистема удаления блюда" style="rounded=0;whiteSpace=wrap;html=1;fontSize=16;" vertex="1" parent="1">
          <mxGeometry x="170" y="210" width="120" height="90" as="geometry" />
        </mxCell>
        <mxCell id="Jrstl3ndmxF7WaJTI_ze-4" value="Подсистема редактирования блюда" style="rounded=0;whiteSpace=wrap;html=1;fontSize=16;" vertex="1" parent="1">
          <mxGeometry x="340" y="210" width="130" height="90" as="geometry" />
        </mxCell>
        <mxCell id="Jrstl3ndmxF7WaJTI_ze-5" value="Подсистема дополнительных функций" style="rounded=0;whiteSpace=wrap;html=1;fontSize=16;" vertex="1" parent="1">
          <mxGeometry x="520" y="210" width="130" height="90" as="geometry" />
        </mxCell>
        <mxCell id="Jrstl3ndmxF7WaJTI_ze-6" value="" style="endArrow=none;html=1;rounded=0;fontSize=12;startSize=8;endSize=8;edgeStyle=orthogonalEdgeStyle;exitX=0.5;exitY=0;exitDx=0;exitDy=0;entryX=0.5;entryY=0;entryDx=0;entryDy=0;" edge="1" parent="1" source="Jrstl3ndmxF7WaJTI_ze-2" target="Jrstl3ndmxF7WaJTI_ze-5">
          <mxGeometry width="50" height="50" relative="1" as="geometry">
            <mxPoint x="70" y="180" as="sourcePoint" />
            <mxPoint x="600" y="180" as="targetPoint" />
            <Array as="points">
              <mxPoint x="60" y="180" />
              <mxPoint x="585" y="180" />
            </Array>
          </mxGeometry>
        </mxCell>
        <mxCell id="Jrstl3ndmxF7WaJTI_ze-11" value="" style="endArrow=none;html=1;rounded=0;fontSize=12;startSize=8;endSize=8;curved=1;" edge="1" parent="1">
          <mxGeometry width="50" height="50" relative="1" as="geometry">
            <mxPoint x="320" y="150" as="sourcePoint" />
            <mxPoint x="320" y="180" as="targetPoint" />
          </mxGeometry>
        </mxCell>
        <mxCell id="Jrstl3ndmxF7WaJTI_ze-12" value="" style="endArrow=none;html=1;rounded=0;fontSize=12;startSize=8;endSize=8;curved=1;entryX=0.5;entryY=0;entryDx=0;entryDy=0;" edge="1" parent="1" target="Jrstl3ndmxF7WaJTI_ze-3">
          <mxGeometry width="50" height="50" relative="1" as="geometry">
            <mxPoint x="230" y="180" as="sourcePoint" />
            <mxPoint x="270" y="130" as="targetPoint" />
          </mxGeometry>
        </mxCell>
        <mxCell id="Jrstl3ndmxF7WaJTI_ze-13" value="" style="endArrow=none;html=1;rounded=0;fontSize=12;startSize=8;endSize=8;curved=1;exitX=0.5;exitY=0;exitDx=0;exitDy=0;" edge="1" parent="1" source="Jrstl3ndmxF7WaJTI_ze-4">
          <mxGeometry width="50" height="50" relative="1" as="geometry">
            <mxPoint x="420" y="210" as="sourcePoint" />
            <mxPoint x="405" y="180" as="targetPoint" />
          </mxGeometry>
        </mxCell>
        <mxCell id="Jrstl3ndmxF7WaJTI_ze-14" value="" style="endArrow=none;html=1;rounded=0;fontSize=12;startSize=8;endSize=8;curved=1;exitX=0.5;exitY=1;exitDx=0;exitDy=0;" edge="1" parent="1" source="Jrstl3ndmxF7WaJTI_ze-2">
          <mxGeometry width="50" height="50" relative="1" as="geometry">
            <mxPoint x="240" y="360" as="sourcePoint" />
            <mxPoint x="60" y="610" as="targetPoint" />
          </mxGeometry>
        </mxCell>
        <mxCell id="Jrstl3ndmxF7WaJTI_ze-15" value="" style="endArrow=none;html=1;rounded=0;fontSize=12;startSize=8;endSize=8;curved=1;exitX=0.5;exitY=1;exitDx=0;exitDy=0;" edge="1" parent="1">
          <mxGeometry width="50" height="50" relative="1" as="geometry">
            <mxPoint x="234" y="300" as="sourcePoint" />
            <mxPoint x="234" y="610" as="targetPoint" />
          </mxGeometry>
        </mxCell>
        <mxCell id="Jrstl3ndmxF7WaJTI_ze-16" value="" style="endArrow=none;html=1;rounded=0;fontSize=12;startSize=8;endSize=8;curved=1;exitX=0.5;exitY=1;exitDx=0;exitDy=0;" edge="1" parent="1">
          <mxGeometry width="50" height="50" relative="1" as="geometry">
            <mxPoint x="412" y="300" as="sourcePoint" />
            <mxPoint x="412" y="610" as="targetPoint" />
          </mxGeometry>
        </mxCell>
        <mxCell id="Jrstl3ndmxF7WaJTI_ze-17" value="" style="endArrow=none;html=1;rounded=0;fontSize=12;startSize=8;endSize=8;curved=1;exitX=0.5;exitY=1;exitDx=0;exitDy=0;" edge="1" parent="1">
          <mxGeometry width="50" height="50" relative="1" as="geometry">
            <mxPoint x="584.37" y="300" as="sourcePoint" />
            <mxPoint x="584.37" y="610" as="targetPoint" />
          </mxGeometry>
        </mxCell>
        <mxCell id="Jrstl3ndmxF7WaJTI_ze-18" value="ввод названия" style="text;html=1;align=center;verticalAlign=middle;resizable=0;points=[];autosize=1;strokeColor=none;fillColor=none;fontSize=16;" vertex="1" parent="1">
          <mxGeometry x="-85" y="344" width="130" height="30" as="geometry" />
        </mxCell>
        <mxCell id="Jrstl3ndmxF7WaJTI_ze-19" value="ввод цены" style="text;html=1;align=center;verticalAlign=middle;resizable=0;points=[];autosize=1;strokeColor=none;fillColor=none;fontSize=16;" vertex="1" parent="1">
          <mxGeometry x="-55" y="410" width="100" height="30" as="geometry" />
        </mxCell>
        <mxCell id="Jrstl3ndmxF7WaJTI_ze-20" value="ввод ингредиентов" style="text;html=1;align=center;verticalAlign=middle;resizable=0;points=[];autosize=1;strokeColor=none;fillColor=none;fontSize=16;" vertex="1" parent="1">
          <mxGeometry x="-115" y="480" width="160" height="30" as="geometry" />
        </mxCell>
        <mxCell id="Jrstl3ndmxF7WaJTI_ze-21" value="удаление блюда" style="text;html=1;align=center;verticalAlign=middle;resizable=0;points=[];autosize=1;strokeColor=none;fillColor=none;fontSize=16;" vertex="1" parent="1">
          <mxGeometry x="79" y="376" width="150" height="30" as="geometry" />
        </mxCell>
        <mxCell id="Jrstl3ndmxF7WaJTI_ze-23" value="редактирование&lt;br&gt;названия" style="text;html=1;align=center;verticalAlign=middle;resizable=0;points=[];autosize=1;strokeColor=none;fillColor=none;fontSize=16;" vertex="1" parent="1">
          <mxGeometry x="254" y="350" width="140" height="50" as="geometry" />
        </mxCell>
        <mxCell id="Jrstl3ndmxF7WaJTI_ze-24" value="редактирование&lt;br&gt;цены" style="text;html=1;align=center;verticalAlign=middle;resizable=0;points=[];autosize=1;strokeColor=none;fillColor=none;fontSize=16;" vertex="1" parent="1">
          <mxGeometry x="254" y="410" width="140" height="50" as="geometry" />
        </mxCell>
        <mxCell id="Jrstl3ndmxF7WaJTI_ze-25" value="редактирование&lt;br&gt;ингредиентов" style="text;html=1;align=center;verticalAlign=middle;resizable=0;points=[];autosize=1;strokeColor=none;fillColor=none;fontSize=16;" vertex="1" parent="1">
          <mxGeometry x="254" y="476" width="140" height="50" as="geometry" />
        </mxCell>
        <mxCell id="Jrstl3ndmxF7WaJTI_ze-26" value="жалобы" style="text;html=1;align=center;verticalAlign=middle;resizable=0;points=[];autosize=1;strokeColor=none;fillColor=none;fontSize=16;" vertex="1" parent="1">
          <mxGeometry x="490" y="330" width="80" height="30" as="geometry" />
        </mxCell>
        <mxCell id="Jrstl3ndmxF7WaJTI_ze-27" value="предложения" style="text;html=1;align=center;verticalAlign=middle;resizable=0;points=[];autosize=1;strokeColor=none;fillColor=none;fontSize=16;" vertex="1" parent="1">
          <mxGeometry x="450" y="400" width="120" height="30" as="geometry" />
        </mxCell>
        <mxCell id="Jrstl3ndmxF7WaJTI_ze-28" value="заказы и банкеты" style="text;html=1;align=center;verticalAlign=middle;resizable=0;points=[];autosize=1;strokeColor=none;fillColor=none;fontSize=16;" vertex="1" parent="1">
          <mxGeometry x="420" y="480" width="150" height="30" as="geometry" />
        </mxCell>
        <mxCell id="Jrstl3ndmxF7WaJTI_ze-29" value="" style="endArrow=none;html=1;rounded=0;fontSize=12;startSize=8;endSize=8;curved=1;" edge="1" parent="1" source="Jrstl3ndmxF7WaJTI_ze-18">
          <mxGeometry width="50" height="50" relative="1" as="geometry">
            <mxPoint x="10" y="410" as="sourcePoint" />
            <mxPoint x="60" y="360" as="targetPoint" />
          </mxGeometry>
        </mxCell>
        <mxCell id="Jrstl3ndmxF7WaJTI_ze-30" value="" style="endArrow=none;html=1;rounded=0;fontSize=12;startSize=8;endSize=8;curved=1;" edge="1" parent="1">
          <mxGeometry width="50" height="50" relative="1" as="geometry">
            <mxPoint x="45" y="424.86" as="sourcePoint" />
            <mxPoint x="60" y="424.86" as="targetPoint" />
          </mxGeometry>
        </mxCell>
        <mxCell id="Jrstl3ndmxF7WaJTI_ze-31" value="" style="endArrow=none;html=1;rounded=0;fontSize=12;startSize=8;endSize=8;curved=1;" edge="1" parent="1">
          <mxGeometry width="50" height="50" relative="1" as="geometry">
            <mxPoint x="45" y="494.86" as="sourcePoint" />
            <mxPoint x="60" y="494.86" as="targetPoint" />
          </mxGeometry>
        </mxCell>
        <mxCell id="Jrstl3ndmxF7WaJTI_ze-32" value="" style="endArrow=none;html=1;rounded=0;fontSize=12;startSize=8;endSize=8;curved=1;" edge="1" parent="1">
          <mxGeometry width="50" height="50" relative="1" as="geometry">
            <mxPoint x="219" y="392.86" as="sourcePoint" />
            <mxPoint x="234" y="392.86" as="targetPoint" />
          </mxGeometry>
        </mxCell>
        <mxCell id="Jrstl3ndmxF7WaJTI_ze-33" value="" style="endArrow=none;html=1;rounded=0;fontSize=12;startSize=8;endSize=8;curved=1;" edge="1" parent="1">
          <mxGeometry width="50" height="50" relative="1" as="geometry">
            <mxPoint x="397.5" y="373.71000000000004" as="sourcePoint" />
            <mxPoint x="412.5" y="373.71000000000004" as="targetPoint" />
          </mxGeometry>
        </mxCell>
        <mxCell id="Jrstl3ndmxF7WaJTI_ze-34" value="" style="endArrow=none;html=1;rounded=0;fontSize=12;startSize=8;endSize=8;curved=1;" edge="1" parent="1">
          <mxGeometry width="50" height="50" relative="1" as="geometry">
            <mxPoint x="397.5" y="434.83000000000004" as="sourcePoint" />
            <mxPoint x="412.5" y="434.83000000000004" as="targetPoint" />
          </mxGeometry>
        </mxCell>
        <mxCell id="Jrstl3ndmxF7WaJTI_ze-35" value="" style="endArrow=none;html=1;rounded=0;fontSize=12;startSize=8;endSize=8;curved=1;" edge="1" parent="1">
          <mxGeometry width="50" height="50" relative="1" as="geometry">
            <mxPoint x="397.5" y="494.83000000000004" as="sourcePoint" />
            <mxPoint x="412.5" y="494.83000000000004" as="targetPoint" />
          </mxGeometry>
        </mxCell>
        <mxCell id="Jrstl3ndmxF7WaJTI_ze-36" value="" style="endArrow=none;html=1;rounded=0;fontSize=12;startSize=8;endSize=8;curved=1;" edge="1" parent="1">
          <mxGeometry width="50" height="50" relative="1" as="geometry">
            <mxPoint x="570" y="344.83000000000004" as="sourcePoint" />
            <mxPoint x="585" y="344.83000000000004" as="targetPoint" />
          </mxGeometry>
        </mxCell>
        <mxCell id="Jrstl3ndmxF7WaJTI_ze-37" value="" style="endArrow=none;html=1;rounded=0;fontSize=12;startSize=8;endSize=8;curved=1;" edge="1" parent="1">
          <mxGeometry width="50" height="50" relative="1" as="geometry">
            <mxPoint x="570" y="414.83000000000004" as="sourcePoint" />
            <mxPoint x="585" y="414.83000000000004" as="targetPoint" />
          </mxGeometry>
        </mxCell>
        <mxCell id="Jrstl3ndmxF7WaJTI_ze-38" value="" style="endArrow=none;html=1;rounded=0;fontSize=12;startSize=8;endSize=8;curved=1;" edge="1" parent="1">
          <mxGeometry width="50" height="50" relative="1" as="geometry">
            <mxPoint x="570" y="494.83000000000004" as="sourcePoint" />
            <mxPoint x="585" y="494.83000000000004" as="targetPoint" />
          </mxGeometry>
        </mxCell>
      </root>
    </mxGraphModel>
  </diagram>
</mxfile>
